<svg xmlns="http://www.w3.org/2000/svg" viewBox="0 0 64 64">
    <path d="M12 14 Q4 12 6 22 Q8 28 16 26z" fill="#8B5E34"/>
    <path d="M52 14 Q60 12 58 22 Q56 28 48 26z" fill="#8B5E34"/>
    <path d="M32 10 C46 10 50 22 48 34 C46 44 40 48 32 48 C24 48 18 44 16 34 C14 22 18 10 32 10z" fill="#A0714F"/>
    <ellipse cx="32" cy="44" rx="12" ry="9" fill="#EFC9A9"/>
    <circle cx="27" cy="43" r="1.8" fill="#5A3921"/>
    <circle cx="37" cy="43" r="1.8" fill="#5A3921"/>
    <circle cx="25" cy="27" r="2.5" fill="#27241D"/>
    <circle cx="39" cy="27" r="2.5" fill="#27241D"/>
    <path d="M26 12 Q32 8 38 12 Q35 16 32 15 Q29 16 26 12z" fill="#7B4B2A"/></svg>
