<svg xmlns="http://www.w3.org/2000/svg" viewBox="0 0 64 64">
    <path d="M22 14 C10 22 8 40 16 52 C6 46 2 26 22 14z" fill="#57AE5B"/>
    <path d="M42 14 C54 22 56 40 48 52 C58 46 62 26 42 14z" fill="#3F9142"/>
    <ellipse cx="32" cy="34" rx="11" ry="22" fill="#F7C948"/>
    <g fill="#E3A008">
      <circle cx="27" cy="20" r="2"/><circle cx="37" cy="20" r="2"/>
      <circle cx="24" cy="28" r="2"/><circle cx="32" cy="28" r="2"/><circle cx="40" cy="28" r="2"/>
      <circle cx="24" cy="36" r="2"/><circle cx="32" cy="36" r="2"/><circle cx="40" cy="36" r="2"/>
      <circle cx="26" cy="44" r="2"/><circle cx="32" cy="44" r="2"/><circle cx="38" cy="44" r="2"/>
      <circle cx="32" cy="51" r="2"/>
    </g></svg>
